<svg xmlns="http://www.w3.org/2000/svg" viewBox="0 0 120.6059 106.2796">
  <path
    fill="#e23b6b"
    d="M41.3922 89.6082C30.8922 80.4389 22.3014 72.9073 22.3014 72.8713c0-.0817 16.4637-13.8274 16.6281-13.883 0-.025 4.0878 3.6096 10.6053 9.4954 5.8077 5.2448 10.5823 9.5359 10.6102 9.5359 0 0 9.9866-8.6047 22.1645-19.1217 12.1779-10.5169 22.1836-19.1217 22.2348-19.1217.1084 0 15.9597 13.8226 15.9597 13.9172 0 .0926-59.9279 52.5862-60.0336 52.5862-.0491 0-8.6802-7.5021-19.1801-16.6714m-33.3628-29.4007C3.6132 56.4854 0 53.408 0 53.3688c0-.0953 60.1149-53.3688 60.2224-53.3688.1096 0 38.2605 33.3195 38.2605 33.4152 0 .0971-37.6342 33.5598-37.7434 33.5598-.1012 0-15.9583-13.8256-15.9583-13.9139 0-.0336 4.8673-4.3187 10.8162-9.5225 5.9488-5.2038 10.8161-9.4792 10.8161-9.5008 0-.0595-6.1256-5.3061-6.195-5.3061-.0332 0-9.9427 8.6047-22.0213 19.1216C26.1187 58.3703 16.1963 66.975 16.1475 66.975c-.0488 0-3.702-3.0453-8.1181-6.7675"
  />
</svg>
