<svg xmlns="http://www.w3.org/2000/svg" viewBox="0 0 120.6059 106.27960000000006" width="90" height="90">
  <path fill="#FFFFFF" d="M 41.3922,89.6082 C 30.892200000000003,80.4389 22.301400000000005,72.9073 22.301400000000005,72.8713 C 22.301400000000005,72.7896 38.765100000000004,59.0439 38.929500000000004,58.9883 C 39.0034,58.9633 43.0912,62.5979 49.6087,68.4837 C 55.41640000000001,73.7285 60.191,78.0196 60.218900000000005,78.0196 C 60.2469,78.0196 70.2335,69.4149 82.4114,58.8979 C 94.5893,48.381 104.595,39.7762 104.6462,39.7762 C 104.7546,39.7762 120.6059,53.5988 120.6059,53.6934 C 120.6059,53.786 60.678,106.2796 60.5723,106.2796 C 60.5232,106.2796 51.8921,98.7775 41.3922,89.6082 M 8.029400000000004,60.2075 C 3.6132000000000035,56.4854 3.552713678800501e-15,53.408 3.552713678800501e-15,53.3688 C 3.552713678800501e-15,53.2735 60.114900000000006,0.0 60.22240000000001,0.0 C 60.33200000000001,0.0 98.4829,33.3195 98.4829,33.4152 C 98.4829,33.5123 60.84870000000001,66.975 60.73950000000001,66.975 C 60.6383,66.975 44.7812,53.1494 44.7812,53.0611 C 44.7812,53.0275 49.6485,48.7424 55.59740000000001,43.5386 C 61.5462,38.3348 66.4135,34.0594 66.4135,34.0378 C 66.4135,33.9783 60.28790000000001,28.7317 60.218500000000006,28.7317 C 60.1853,28.7317 50.275800000000004,37.3364 38.19720000000001,47.8533 C 26.118700000000004,58.3703 16.196300000000004,66.975 16.147500000000004,66.975 C 16.098700000000004,66.975 12.445500000000003,63.9297 8.029400000000004,60.2075 L 8.029400000000004,60.2075 " />
</svg>